<?xml version="1.0" encoding="utf-8"?>
<svg version="1.0" width="3000.000000pt" height="4000.000000pt" viewBox="471.38 1728.395 3084.176 704.826" preserveAspectRatio="xMidYMid meet" xmlns="http://www.w3.org/2000/svg">
  <g transform="translate(0.000000,4000.000000) scale(0.100000,-0.100000)" fill="#000000" stroke="none">
    <path fill="#737373" d="M18110 20010 l0 -2430 755 0 755 0 0 2430 0 2430 -755 0 -755 0 0 -2430z m1118 3 l2 -2033 -365 0 -365 0 0 2035 0 2035 363 -2 362 -3 3 -2032z"/>
    <path fill="#737373" d="M5290 19875 l0 -2295 1445 0 1445 0 0 660 0 660 -680 0 -680 0 2 198 3 197 628 3 627 2 0 650 0 650 -630 0 -631 0 3 133 3 132 678 3 677 2 0 650 0 650 -1445 0 -1445 0 0 -2295z m2490 1645 l0 -260 -675 0 -675 0 0 -525 0 -525 625 0 625 0 0 -260 0 -260 -625 0 -625 0 0 -595 0 -595 675 0 675 0 0 -260 0 -260 -1045 0 -1045 0 0 1900 0 1900 1045 0 1045 0 0 -260z"/>
    <path fill="#273577" d="M32435 22033 c-890 -56 -1468 -467 -1719 -1223 -182 -547 -176 -1347 14 -1896 46 -131 161 -356 238 -464 88 -123 253 -289 372 -374 120 -86 320 -184 478 -236 204 -67 405 -101 682 -116 l125 -7 365 -459 c201 -253 368 -464 371 -469 3 -5 293 -8 709 -7 l704 3 -507 584 c-279 321 -507 587 -507 591 0 3 19 17 43 30 152 84 359 272 470 428 198 276 310 601 369 1067 19 154 16 668 -5 830 -110 830 -469 1336 -1119 1579 -286 107 -718 162 -1083 139z m365 -938 c251 -48 413 -174 526 -410 104 -216 153 -527 140 -895 -15 -463 -103 -742 -291 -926 -149 -145 -387 -217 -644 -193 -253 23 -424 122 -557 320 -148 222 -218 602 -194 1048 32 576 203 895 551 1025 116 44 332 58 469 31z"/>
    <path fill="#273577" d="M28690 19875 l0 -2095 570 0 570 0 0 2095 0 2095 -570 0 -570 0 0 -2095z"/>
    <path fill="#737373" d="M10503 21279 c-268 -19 -532 -114 -714 -256 -30 -23 -58 -43 -61 -43 -3 0 -24 56 -48 125 l-42 125 -594 0 -594 0 0 -1825 0 -1825 759 0 760 0 4 963 c3 834 6 976 20 1065 21 132 42 203 80 275 35 66 73 100 132 116 134 37 188 -16 220 -213 13 -76 15 -262 15 -1148 l0 -1058 759 0 760 0 4 973 c3 863 5 984 21 1075 45 269 122 375 272 376 58 1 66 -2 94 -29 37 -37 65 -114 79 -218 7 -52 11 -429 11 -1128 l0 -1049 760 0 760 0 0 1223 c0 1322 -1 1362 -54 1582 -121 502 -440 792 -963 875 -125 20 -306 28 -434 19 -304 -21 -612 -146 -796 -322 l-42 -40 -57 52 c-252 230 -655 343 -1111 310z m308 -399 c300 -30 509 -138 644 -333 l60 -86 150 0 150 -1 40 58 c141 205 357 327 635 362 232 28 492 -7 670 -92 165 -79 291 -241 350 -448 48 -174 50 -205 50 -1317 l0 -1043 -359 0 -360 0 -4 898 c-4 951 -4 943 -53 1111 -60 208 -217 368 -393 401 -140 26 -325 2 -434 -57 -150 -82 -267 -249 -326 -466 -53 -197 -54 -214 -58 -1079 l-4 -808 -364 0 -364 0 -4 898 c-3 974 -3 970 -61 1141 -69 204 -206 339 -375 371 -79 15 -218 12 -286 -5 -266 -69 -426 -272 -495 -625 -38 -193 -42 -277 -47 -1032 l-5 -748 -359 0 -359 0 0 1425 0 1425 253 0 254 0 69 -200 69 -200 162 0 162 0 17 33 c9 17 39 64 65 103 163 242 492 356 910 314z"/>
    <path fill="#737373" d="M16389 21279 c-168 -14 -336 -62 -469 -136 -67 -37 -198 -131 -220 -158 -7 -8 -16 -15 -20 -15 -4 0 -29 58 -56 130 l-49 130 -622 0 -623 0 0 -2530 0 -2530 760 0 760 0 0 750 c0 413 2 750 5 750 3 0 31 -13 63 -29 148 -74 331 -112 552 -113 377 -1 667 120 910 380 244 260 394 616 457 1082 22 167 25 645 5 810 -59 486 -208 852 -452 1112 -260 279 -593 400 -1001 367z m344 -419 c367 -98 606 -433 697 -976 41 -247 43 -648 5 -906 -57 -378 -212 -700 -422 -873 -83 -69 -223 -137 -328 -162 -119 -27 -341 -24 -455 5 -165 43 -263 105 -413 261 l-88 91 -181 0 -181 0 6 -47 c3 -27 21 -140 38 -253 l33 -205 3 -612 4 -613 -365 0 -366 0 0 2130 0 2130 292 -2 292 -3 76 -200 77 -200 149 -2 149 -3 55 82 c151 224 312 328 590 382 57 11 257 -3 333 -24z"/>
    <path fill="#737373" d="M15933 20385 c-339 -74 -496 -409 -480 -1025 10 -385 73 -599 221 -757 115 -124 266 -180 461 -170 167 7 263 48 367 154 99 101 161 250 195 464 25 161 25 577 0 737 -54 343 -199 540 -438 597 -79 18 -242 18 -326 0z m259 -399 c46 -22 80 -87 105 -201 26 -115 26 -623 0 -735 -37 -165 -92 -226 -198 -223 -186 4 -249 159 -249 608 1 225 12 320 52 433 27 76 62 116 115 130 52 15 130 9 175 -12z"/>
    <path fill="#737373" d="M21520 21279 c-924 -56 -1521 -620 -1636 -1544 -18 -142 -20 -480 -5 -610 41 -337 140 -623 298 -857 329 -491 843 -745 1498 -741 375 2 636 56 900 183 525 254 844 748 916 1417 15 149 7 544 -15 673 -113 661 -491 1142 -1071 1363 -248 95 -563 136 -885 116z m494 -419 c150 -29 253 -63 374 -122 382 -186 615 -526 699 -1023 24 -139 24 -478 0 -629 -75 -475 -283 -800 -635 -993 -259 -141 -633 -201 -992 -158 -342 41 -590 155 -808 374 -294 294 -432 771 -381 1321 59 652 401 1074 979 1212 218 52 551 60 764 18z"/>
    <path fill="#737373" d="M21535 20435 c-80 -17 -158 -49 -210 -85 -106 -73 -204 -222 -253 -385 -94 -313 -88 -858 12 -1153 85 -250 247 -401 476 -444 91 -17 274 -5 352 24 229 85 360 278 423 628 26 142 32 506 11 680 -42 367 -159 582 -370 685 -125 61 -300 81 -441 50z m262 -406 c51 -25 75 -56 107 -141 44 -116 59 -242 59 -478 0 -368 -55 -578 -166 -637 -44 -24 -180 -24 -224 0 -102 54 -160 245 -170 562 -11 340 43 609 136 674 66 46 186 55 258 20z"/>
    <path fill="#737373" d="M23279 21183 c11 -27 317 -793 680 -1703 l661 -1655 -45 -91 c-48 -98 -115 -181 -177 -220 -102 -64 -275 -69 -538 -13 -80 16 -160 33 -178 36 l-32 6 2 -644 3 -644 130 -27 c276 -57 498 -70 760 -43 177 18 272 37 405 82 421 142 709 417 950 908 96 196 40 51 854 2240 l673 1810 -786 3 c-483 1 -787 -1 -790 -7 -3 -5 -114 -368 -246 -805 -131 -437 -242 -793 -244 -790 -3 3 -111 364 -241 802 l-235 797 -812 3 -813 2 19 -47z m1325 -405 c8 -29 123 -419 255 -867 133 -447 247 -846 256 -886 8 -41 20 -140 26 -222 6 -81 13 -158 15 -170 4 -23 5 -23 194 -23 l189 0 5 43 c45 354 16 243 371 1420 l229 757 353 0 c217 0 353 -4 353 -10 0 -12 -1181 -3189 -1226 -3298 -142 -343 -338 -620 -533 -751 -137 -93 -318 -159 -506 -186 -104 -15 -351 -20 -467 -8 l-68 6 0 245 0 245 73 -6 c165 -12 344 27 473 104 75 44 185 147 239 224 49 69 128 223 178 346 l33 84 -593 1485 c-326 817 -595 1493 -599 1503 -5 16 17 17 365 17 l370 0 15 -52z"/>
    <path fill="#273577" d="M1432 16070 c0 -14 2 -19 5 -12 2 6 2 18 0 25 -3 6 -5 1 -5 -13z"/>
    <path fill="#273577" d="M1441 16024 c0 -11 3 -14 6 -6 3 7 2 16 -1 19 -3 4 -6 -2 -5 -13z"/>
  </g>
</svg>