<?xml version="1.0" encoding="utf-8"?>
<!-- Generator: Adobe Illustrator 21.1.0, SVG Export Plug-In . SVG Version: 6.00 Build 0)  -->
<svg version="1.1" id="Isolation_Mode" xmlns="http://www.w3.org/2000/svg" xmlns:xlink="http://www.w3.org/1999/xlink" x="0px"
	 y="0px" viewBox="0 0 60.1 60.2" style="enable-background:new 0 0 60.1 60.2;" xml:space="preserve">
<style type="text/css">
	.st0{fill:#FFDD00;}
</style>
<path class="st0" d="M29.9,49.5c-10.8-0.1-19.4-8.9-19.3-19.6c0.1-10.8,8.9-19.4,19.6-19.3c10.8,0.1,19.4,8.9,19.3,19.6
	c0,2.6-0.6,5.1-1.5,7.4l7.8,7.9c2.7-4.5,4.3-9.7,4.3-15.2C60.2,13.7,46.9,0.1,30.3,0C13.7-0.1,0.1,13.2,0,29.8
	C-0.1,46.4,13.2,60,29.8,60.1c5.8,0,11.2-1.6,15.9-4.4l-7.8-7.9C35.5,48.9,32.8,49.5,29.9,49.5"/>
<path class="st0" d="M24.3,30.1c0,3.2,2.6,5.8,5.8,5.8c3.2,0,5.8-2.6,5.8-5.8c0-3.2-2.6-5.8-5.8-5.8C26.9,24.3,24.3,26.9,24.3,30.1"
	/>
<path class="st0" d="M58.7,51.5L43.1,35.9c-2-2-5.2-2-7.2,0c-2,2-2,5.2,0,7.2l15.6,15.6c2,2,5.2,2,7.2,0
	C60.6,56.7,60.6,53.5,58.7,51.5"/>
</svg>
